<?xml version="1.0" encoding="UTF-8"?>
<svg width="360px" height="360px" viewBox="0 0 360 360" version="1.1" xmlns="http://www.w3.org/2000/svg" xmlns:xlink="http://www.w3.org/1999/xlink">
    <title>favicon</title>
    <g id="Page-1" stroke="none" stroke-width="1" fill="none" fill-rule="evenodd">
        <g id="favicon" fill-rule="nonzero">
            <rect id="Rectangle" fill="#FFFFFF" x="0" y="0" width="360" height="360" rx="16"></rect>
            <path d="M188.005168,80.3001857 C236.435043,83.9024078 276.059116,123.526888 279.661338,171.956762 C284.164116,226.890649 243.23924,275.12077 188.305354,279.623548 C182.90202,280.023795 177.398626,280.023795 171.995292,279.623548 C123.565418,276.021326 83.9408823,236.396513 80.3386583,187.966638 C75.8358826,133.032752 116.761221,84.8029633 171.695107,80.3001857 C177.09844,79.8999381 182.601835,79.8999381 188.005168,80.3001857 Z M216.020598,148.742813 L154.782823,212.38207 C169.992205,227.991699 194.407266,227.991699 209.616648,212.38207 L244.037881,177.160343 C251.342387,169.055343 251.142264,156.647689 243.637634,148.742813 C236.032943,141.138122 223.625289,141.138122 216.020598,148.742813 Z M150.380107,151.544541 L115.958874,186.766268 C108.354183,194.370959 108.354183,207.17886 115.958874,215.183798 C123.563565,222.788489 135.971219,222.788489 143.57591,215.183798 L205.213932,151.544541 C190.404797,135.934912 165.589489,135.934912 150.380107,151.544541 Z" id="Combined-Shape" fill="#31CB9E"></path>
        </g>
    </g>
</svg>